<svg width="304" height="251" viewBox="0 0 304 251" fill="none" xmlns="http://www.w3.org/2000/svg">
<path opacity="0.08" d="M225.62 0H47.097C50.4341 4.41303 52.4699 9.80985 52.4699 15.7078V52.4339C52.9211 52.3294 53.3934 52.3293 53.8341 52.3293C56.6675 52.3293 59.3749 53.3754 61.3898 55.3623L78.7678 72.6684C80.6501 71.1042 83.0225 70.2465 85.4734 70.243H94.4458C97.229 70.243 99.8981 71.3443 101.866 73.3054C103.834 75.2666 104.94 77.9269 104.94 80.7004V97.0976C104.94 97.6205 104.919 98.1428 104.835 98.6448L115.371 109.144C116.745 110.517 117.71 112.243 118.157 114.13C118.603 116.018 118.515 117.992 117.901 119.832C117.287 121.671 116.171 123.305 114.68 124.55C113.188 125.794 111.378 126.602 109.452 126.881V188.234C109.452 191.007 108.347 193.668 106.379 195.629C104.411 197.59 101.741 198.691 98.9582 198.691H62.9639C61.1533 198.691 59.3737 198.222 57.7991 197.332C56.2246 196.441 54.909 195.159 53.981 193.609C53.5515 194.302 53.0446 194.944 52.4699 195.523V235.292C52.4699 244.076 59.3959 250.978 68.2109 250.978C77.0258 250.978 83.9518 244.076 83.9518 235.292V219.606H241.361V198.608H178.398V209.066H146.916V198.608H136.422V167.236H146.916V52.2042H178.398V92.705L202.46 68.1303L236.828 99.3251L241.361 93.8871V15.6861C241.361 6.9019 234.435 0 225.62 0ZM26.2349 0C17.42 0 10.494 6.9019 10.494 15.6861V20.9149H41.9759V15.6861C41.9759 6.9019 35.0499 0 26.2349 0ZM83.9518 20.9149H125.928V31.3723H83.9518V20.9149ZM157.41 62.6616V177.714H146.916V188.171H157.41V198.629H167.904V188.171H293.831V177.714H167.904V163.419L202.933 130.927L224.372 146.938L238.906 129.515L262.37 150.817L293.506 114.007V117.28H304V96.3649H283.012V106.822H285.845L261.394 135.769L245.622 121.473L262.349 101.458V104.522H272.843V83.6071H251.855V94.0645H254.899L237.877 114.425L202.891 82.6867L167.904 118.431V62.6922H157.41V62.6616ZM53.9915 62.7663L0 116.548H107.952L53.9915 62.7663ZM85.4734 80.7004V88.2614L94.4668 97.0874V80.7004H85.4734ZM203.321 97.3069L231.13 122.551L222.672 132.684L202.177 117.406L167.904 149.207V133.457L203.321 97.3069ZM8.99334 121.046V188.255H44.9877V148.025H62.9848V188.255H98.9582V121.046H8.99334ZM94.4458 230.085V235.314C94.4458 241.421 91.455 246.545 87.908 251H267.596C276.411 251 283.337 244.098 283.337 235.314V230.085H94.4458Z" fill="#008889"/>
</svg>
